# xmcd CD database file
# Copyright (C) 1995-1998 Ti Kan
#
# Track frame offsets:
#	150
#	13035
#	24482
#	39320
#	50630
#	61097
#	77730
#	89552
#	102275
#	125195
#	156772
#	167167
#	178982
#	191359
#	205487
#	219515
#	229845
#	241365
#
# Disc length: 3407 seconds
#
# Revision: 1
# Processed by: cddbd v1.4b41PL1 Copyright (c) Steve Scherf et al.
# Submitted via: CDex 1.40Beta0
#
DISCID=fa0d4d12
DTITLE=Ray Charles - Blues is My Middle Name
DYEAR=1900
DGENRE=Blues
TTITLE0=Baby Won't You Please Come Home
TTITLE1=She's On The Ball
TTITLE2=Hallelujah I Love Her So
TTITLE3=Margie
TTITLE4=Th' Ego Song
TTITLE5=I Believe to My Soul
TTITLE6=If I Give You My Love
TTITLE7=You Always Miss The Water
TTITLE8=What'd I Say
TTITLE9=Come Rain Or Come Shine
TTITLE10=I've Had My Fun (Going Down Slow)
TTITLE11=C C Rider
TTITLE12=I Love You, I Love You
TTITLE13=Baby Let Me Hold Your Hand
TTITLE14=This Love of Mine
TTITLE15=Ain't That Fine
TTITLE16=Let The Good Times Roll
TTITLE17=Blues is My Middle Name
EXTD=ID3G:   0
EXTT0=
EXTT1=
EXTT2=
EXTT3=
EXTT4=
EXTT5=
EXTT6=
EXTT7=
EXTT8=
EXTT9=
EXTT10=
EXTT11=
EXTT12=
EXTT13=
EXTT14=
EXTT15=
EXTT16=
EXTT17=
PLAYORDER=
